<svg width="70" height="70" viewBox="0 0 70 70" fill="none" xmlns="http://www.w3.org/2000/svg">
<path d="M61.2499 8.75H8.7499C5.54156 8.75 2.91656 11.375 2.91656 14.5833V37.9167H8.7499V14.5833H61.2499V61.25C64.4582 61.25 67.0832 58.625 67.0832 55.4167V14.5833C67.0832 11.375 64.4582 8.75 61.2499 8.75Z" fill="black" fill-opacity="0.4"/>
<path d="M37.9165 29.1667C37.9165 22.7208 32.6956 17.5 26.2498 17.5C19.804 17.5 14.5831 22.7208 14.5831 29.1667C14.5831 35.6125 19.804 40.8333 26.2498 40.8333C32.6956 40.8333 37.9165 35.6125 37.9165 29.1667ZM20.4165 29.1667C20.4165 25.9583 23.0415 23.3333 26.2498 23.3333C29.4581 23.3333 32.0831 25.9583 32.0831 29.1667C32.0831 32.375 29.4581 35 26.2498 35C23.0415 35 20.4165 32.375 20.4165 29.1667Z" fill="black" fill-opacity="0.4"/>
<path d="M44.8874 48.3C39.9874 45.7917 33.6291 43.75 26.2499 43.75C18.8707 43.75 12.5124 45.7917 7.6124 48.3C4.69573 49.7875 2.91656 52.7917 2.91656 56.0583V64.1667H49.5832V56.0583C49.5832 52.7917 47.8041 49.7875 44.8874 48.3ZM43.7499 58.3333H8.7499C8.7499 56.2333 8.45823 54.425 10.2666 53.4917C13.7374 51.7125 19.3374 49.5833 26.2499 49.5833C33.1624 49.5833 38.7624 51.7125 42.2332 53.4917C44.0707 54.425 43.7499 56.2625 43.7499 58.3333Z" fill="black" fill-opacity="0.4"/>
</svg>
