<svg width="247" height="258" viewBox="0 0 247 258" fill="none" xmlns="http://www.w3.org/2000/svg">
<g clip-path="url(#clip0_79_55)">
<path d="M199.144 107.93C192.145 70.8424 160.962 42.9999 123.5 42.9999C93.7571 42.9999 67.925 60.6299 55.0604 86.4299C24.0825 89.8699 0 117.282 0 150.5C0 186.082 27.6846 215 61.75 215H195.542C223.947 215 247 190.92 247 161.25C247 132.87 225.902 109.865 199.144 107.93ZM195.542 193.5H61.75C39.0054 193.5 20.5833 174.257 20.5833 150.5C20.5833 128.462 36.3296 110.08 57.2217 107.822L68.2338 106.64L73.3796 96.4274C83.1567 76.7549 102.299 64.4999 123.5 64.4999C150.464 64.4999 173.723 84.4949 178.972 112.122L182.06 128.247L197.806 129.43C213.861 130.505 226.417 144.587 226.417 161.25C226.417 178.987 212.523 193.5 195.542 193.5V193.5ZM82.3333 139.75H108.577V172H138.423V139.75H164.667L123.5 96.7499L82.3333 139.75Z" fill="black" fill-opacity="0.4"/>
</g>
<defs>
<clipPath id="clip0_79_55">
<rect width="247" height="258" fill="white"/>
</clipPath>
</defs>
</svg>
