<svg width="35" height="35" viewBox="0 0 35 35" fill="none" xmlns="http://www.w3.org/2000/svg">
<path d="M24.0625 4.375C21.525 4.375 19.0895 5.55625 17.5 7.42292C15.9104 5.55625 13.475 4.375 10.9375 4.375C6.44579 4.375 2.91663 7.90417 2.91663 12.3958C2.91663 17.9083 7.87496 22.4 15.3854 29.225L17.5 31.1354L19.6145 29.2104C27.125 22.4 32.0833 17.9083 32.0833 12.3958C32.0833 7.90417 28.5541 4.375 24.0625 4.375ZM17.6458 27.0521L17.5 27.1979L17.3541 27.0521C10.4125 20.7667 5.83329 16.6104 5.83329 12.3958C5.83329 9.47917 8.02079 7.29167 10.9375 7.29167C13.1833 7.29167 15.3708 8.73542 16.1437 10.7333H18.8708C19.6291 8.73542 21.8166 7.29167 24.0625 7.29167C26.9791 7.29167 29.1666 9.47917 29.1666 12.3958C29.1666 16.6104 24.5875 20.7667 17.6458 27.0521Z" fill="black"/>
</svg>
