<svg width="33" height="33" viewBox="0 0 33 33" fill="none" xmlns="http://www.w3.org/2000/svg">
<g clip-path="url(#clip0_68_357)">
<path d="M17.57 4.05463C10.8529 4.05463 5.40617 9.50131 5.40617 16.2184H1.35156L6.60903 21.4759L6.70364 21.6651L12.1638 16.2184H8.10924C8.10924 10.988 12.3395 6.7577 17.57 6.7577C22.8004 6.7577 27.0307 10.988 27.0307 16.2184C27.0307 21.4489 22.8004 25.6792 17.57 25.6792C14.9615 25.6792 12.5963 24.6115 10.8934 22.895L8.97422 24.8142C11.1772 27.0172 14.2047 28.3823 17.57 28.3823C24.2871 28.3823 29.7338 22.9356 29.7338 16.2184C29.7338 9.50131 24.2871 4.05463 17.57 4.05463ZM16.2184 10.8123V17.57L21.9625 20.9758L23.0031 19.2459L18.2457 16.4212V10.8123H16.2184Z" fill="#080435"/>
</g>
<defs>
<clipPath id="clip0_68_357">
<rect width="32.4368" height="32.4368" fill="white"/>
</clipPath>
</defs>
</svg>
