<svg width="64" height="64" viewBox="0 0 64 64" fill="none" xmlns="http://www.w3.org/2000/svg">
<path d="M40 10.6666V29.3333H13.7867L12.2134 30.9066L10.6667 32.4533V10.6666H40ZM42.6667 5.33331H8.00004C6.53337 5.33331 5.33337 6.53331 5.33337 7.99998V45.3333L16 34.6666H42.6667C44.1334 34.6666 45.3334 33.4666 45.3334 32V7.99998C45.3334 6.53331 44.1334 5.33331 42.6667 5.33331ZM56 16H50.6667V40H16V45.3333C16 46.8 17.2 48 18.6667 48H48L58.6667 58.6666V18.6666C58.6667 17.2 57.4667 16 56 16Z" fill="black"/>
</svg>
