<svg width="53" height="53" viewBox="0 0 53 53" fill="none" xmlns="http://www.w3.org/2000/svg">
<g clip-path="url(#clip0_68_333)">
<path d="M13.6582 36.0766L12.9038 31.678L16.0997 28.563C16.3818 28.2879 16.4834 27.8765 16.3616 27.5018C16.2399 27.1271 15.9159 26.8539 15.526 26.7972L11.1095 26.1556L9.13441 22.1536C8.95998 21.8003 8.60016 21.5766 8.20618 21.5766C7.8122 21.5766 7.45228 21.8003 7.27796 22.1536L5.30289 26.1556L0.886402 26.7972C0.496459 26.8539 0.17256 27.1271 0.0507219 27.5018C-0.0711158 27.8765 0.0305363 28.2879 0.312719 28.563L3.50845 31.678L2.75403 36.0766C2.68736 36.465 2.84709 36.8574 3.16581 37.089C3.34614 37.22 3.55979 37.2867 3.77438 37.2867C3.93918 37.2867 4.10449 37.2474 4.25593 37.1679L8.20608 35.091L12.1562 37.1679C12.505 37.3512 12.9275 37.3206 13.2464 37.089C13.5652 36.8574 13.7248 36.465 13.6582 36.0766ZM11.0688 30.5753C10.8248 30.8132 10.7134 31.1557 10.7711 31.4916L11.2629 34.3593L8.68753 33.0053C8.38599 32.8468 8.02565 32.8468 7.72411 33.0053L5.14906 34.3593L5.64087 31.4916C5.69852 31.1558 5.58714 30.8132 5.34315 30.5753L3.2597 28.5444L6.13898 28.1261C6.47613 28.0771 6.76763 27.8653 6.91835 27.5598L8.20598 24.9507L9.49361 27.5598C9.64443 27.8653 9.93582 28.0771 10.273 28.1261L13.1523 28.5444L11.0688 30.5753Z" fill="white"/>
<path d="M52.9493 27.5018C52.8276 27.1271 52.5036 26.8539 52.1136 26.7972L47.6971 26.1556L45.7221 22.1536C45.5476 21.8003 45.1878 21.5766 44.7938 21.5766C44.3999 21.5766 44.0399 21.8003 43.8656 22.1536L41.8905 26.1556L37.474 26.7972C37.0841 26.8539 36.7602 27.1271 36.6384 27.5018C36.5165 27.8765 36.6182 28.2879 36.9004 28.563L40.0962 31.678L39.3418 36.0766C39.2751 36.465 39.4347 36.8574 39.7536 37.089C40.0724 37.3206 40.4951 37.351 40.8437 37.1679L44.7938 35.091L48.744 37.1679C48.8954 37.2476 49.0608 37.2867 49.2255 37.2867C49.4401 37.2867 49.6538 37.2199 49.8341 37.089C50.1528 36.8574 50.3126 36.465 50.2459 36.0766L49.4915 31.678L52.6872 28.563C52.9696 28.2879 53.0711 27.8765 52.9493 27.5018ZM47.6569 30.5754C47.4129 30.8133 47.3015 31.1558 47.3592 31.4917L47.851 34.3594L45.2756 33.0054C45.1248 32.9261 44.9594 32.8866 44.7939 32.8866C44.6285 32.8866 44.463 32.9262 44.3123 33.0054L41.7369 34.3594L42.2287 31.4917C42.2864 31.1559 42.175 30.8133 41.931 30.5754L39.8476 28.5445L42.7268 28.1262C43.064 28.0772 43.3555 27.8654 43.5062 27.5599L44.7938 24.9508L46.0815 27.5599C46.2323 27.8654 46.5237 28.0772 46.8608 28.1262L49.7401 28.5445L47.6569 30.5754Z" fill="white"/>
<path d="M33.986 32.5883L32.8282 25.8374L37.7329 21.0565C38.0151 20.7815 38.1166 20.3701 37.9949 19.9954C37.8731 19.6207 37.5491 19.3475 37.1592 19.2908L30.3811 18.3059L27.3498 12.1637C27.1753 11.8104 26.8155 11.5867 26.4215 11.5867C26.0275 11.5867 25.6676 11.8104 25.4933 12.1637L22.4621 18.3059L15.6839 19.2908C15.2939 19.3475 14.97 19.6207 14.8482 19.9954C14.7264 20.3701 14.828 20.7815 15.1102 21.0565L20.015 25.8374L18.8571 32.5883C18.7904 32.9766 18.95 33.3691 19.2688 33.6006C19.5876 33.8322 20.0103 33.8626 20.359 33.6795L26.4215 30.4922L32.4841 33.6795C32.6356 33.7592 32.801 33.7983 32.9657 33.7983C33.1803 33.7983 33.3939 33.7316 33.5743 33.6006C33.893 33.3691 34.0526 32.9766 33.986 32.5883ZM30.6956 25.6511L31.5908 30.871L26.903 28.4064C26.7522 28.3271 26.5868 28.2876 26.4213 28.2876C26.256 28.2875 26.0906 28.3271 25.9398 28.4064L21.252 30.871L22.1473 25.6511C22.2049 25.3153 22.0936 24.9726 21.8496 24.7347L18.0571 21.0381L23.2982 20.2766C23.6353 20.2276 23.9268 20.0158 24.0775 19.7103L26.4214 14.961L28.7653 19.7103C28.9162 20.0158 29.2076 20.2276 29.5447 20.2766L34.7857 21.0381L30.9933 24.7347C30.7493 24.9726 30.6379 25.3152 30.6956 25.6511Z" fill="white"/>
<path d="M28.7773 39.3432H14.3887C13.817 39.3432 13.3535 39.8067 13.3535 40.3784C13.3535 40.95 13.817 41.4135 14.3887 41.4135H28.7773C29.349 41.4135 29.8125 40.95 29.8125 40.3784C29.8125 39.8067 29.349 39.3432 28.7773 39.3432Z" fill="white"/>
<path d="M38.6112 39.3432H34.16C33.5883 39.3432 33.1249 39.8067 33.1249 40.3784C33.1249 40.95 33.5883 41.4135 34.16 41.4135H38.6112C39.1829 41.4135 39.6463 40.95 39.6463 40.3784C39.6463 39.8067 39.1829 39.3432 38.6112 39.3432Z" fill="white"/>
</g>
<defs>
<clipPath id="clip0_68_333">
<rect width="53" height="53" fill="white"/>
</clipPath>
</defs>
</svg>
