<svg width="51" height="51" viewBox="0 0 51 51" fill="none" xmlns="http://www.w3.org/2000/svg">
<path d="M13.8125 25.5C20.2673 25.5 25.5 30.7327 25.5 37.1875C25.5 43.6423 20.2673 48.875 13.8125 48.875C7.35767 48.875 2.125 43.6423 2.125 37.1875C2.125 30.7327 7.35767 25.5 13.8125 25.5ZM13.8125 42.245C13.0796 42.245 12.4854 42.8392 12.4854 43.5721C12.4854 44.305 13.0796 44.8992 13.8125 44.8992C14.5454 44.8992 15.1396 44.305 15.1396 43.5721C15.1396 42.8392 14.5454 42.245 13.8125 42.245ZM37.7188 6.375C41.533 6.375 44.625 9.46703 44.625 13.2812V37.7188C44.625 41.533 41.533 44.625 37.7188 44.625L25.452 44.6276C26.0828 43.6428 26.592 42.5727 26.9585 41.4384L37.7188 41.4375C39.7726 41.4375 41.4375 39.7726 41.4375 37.7188V13.2812C41.4375 11.2274 39.7726 9.5625 37.7188 9.5625H13.2812C11.2274 9.5625 9.5625 11.2274 9.5625 13.2812L9.56161 24.0415C8.42733 24.408 7.35721 24.9172 6.37243 25.548L6.375 13.2812C6.375 9.46703 9.46703 6.375 13.2812 6.375H37.7188ZM13.8126 29.7566C11.5857 29.7566 9.85097 31.4935 9.87416 33.9094C9.87979 34.4962 10.36 34.9673 10.9468 34.9617C11.5336 34.9561 12.0047 34.4758 11.9991 33.889C11.9873 32.6586 12.7633 31.8816 13.8126 31.8816C14.8164 31.8816 15.6261 32.7143 15.6261 33.8992C15.6261 34.3759 15.4661 34.7305 14.9505 35.3387L14.7401 35.5794L14.1761 36.1958C13.147 37.3466 12.7501 38.0917 12.7501 39.3138C12.7501 39.9006 13.2258 40.3763 13.8126 40.3763C14.3994 40.3763 14.8751 39.9006 14.8751 39.3138C14.8751 38.8203 15.0375 38.4584 15.5631 37.8383L15.7776 37.5929L16.3423 36.9756C17.3573 35.8403 17.7511 35.102 17.7511 33.8992C17.7511 31.5539 16.0036 29.7566 13.8126 29.7566ZM24.9688 12.75C25.7756 12.75 26.4424 13.3496 26.548 14.1275L26.5625 14.3438V25.5H34.5276C35.4078 25.5 36.1213 26.2135 36.1213 27.0938C36.1213 27.9006 35.5217 28.5674 34.7438 28.673L34.5276 28.6875H24.9688C24.1619 28.6875 23.4951 28.0879 23.3895 27.31L23.375 27.0938V14.3438C23.375 13.4635 24.0885 12.75 24.9688 12.75Z" fill="white"/>
</svg>
