<svg width="41" height="41" viewBox="0 0 41 41" fill="none" xmlns="http://www.w3.org/2000/svg">
<path d="M6.33153 0C2.84033 0 0 2.84033 0 6.33153C0 9.82273 2.84033 12.6631 6.33153 12.6631C9.82273 12.6631 12.6631 9.82273 12.6631 6.33153C12.6631 2.84033 9.82273 0 6.33153 0ZM6.33153 11.3348C3.57276 11.3348 1.32829 9.09031 1.32829 6.33153C1.32829 3.57276 3.57276 1.32829 6.33153 1.32829C9.09031 1.32829 11.3348 3.57276 11.3348 6.33153C11.3348 9.09031 9.09031 11.3348 6.33153 11.3348Z" fill="white"/>
<path d="M6.33153 14.1685C2.84033 14.1685 0 17.0088 0 20.5C0 23.9912 2.84033 26.8315 6.33153 26.8315C9.82273 26.8315 12.6631 23.9912 12.6631 20.5C12.6631 17.0088 9.82273 14.1685 6.33153 14.1685ZM6.33153 25.5032C3.57276 25.5032 1.32829 23.2588 1.32829 20.5C1.32829 17.7412 3.57276 15.4968 6.33153 15.4968C9.09031 15.4968 11.3348 17.7412 11.3348 20.5C11.3348 23.2588 9.09031 25.5032 6.33153 25.5032Z" fill="white"/>
<path d="M6.33153 28.337C2.84033 28.337 0 31.1773 0 34.6685C0 38.1597 2.84033 41 6.33153 41C9.82273 41 12.6631 38.1597 12.6631 34.6685C12.6631 31.1773 9.82273 28.337 6.33153 28.337ZM6.33153 39.6717C3.57276 39.6717 1.32829 37.4273 1.32829 34.6685C1.32829 31.9097 3.57276 29.6653 6.33153 29.6653C9.09031 29.6653 11.3348 31.9097 11.3348 34.6685C11.3348 37.4273 9.09031 39.6717 6.33153 39.6717Z" fill="white"/>
<path d="M7.98709 4.44505L5.62309 6.80914L4.67592 5.86189C4.41646 5.60252 3.99601 5.60252 3.73664 5.86189C3.47727 6.12126 3.47727 6.5418 3.73664 6.80108L5.15349 8.21793C5.28313 8.34766 5.45315 8.41248 5.62309 8.41248C5.79302 8.41248 5.96304 8.34766 6.09277 8.21793L8.92646 5.38424C9.18584 5.12487 9.18584 4.70433 8.92646 4.44505C8.667 4.18568 8.24655 4.18568 7.98709 4.44505Z" fill="white"/>
<path d="M7.98709 18.6136L5.62309 20.9777L4.67592 20.0304C4.41646 19.7711 3.99601 19.7711 3.73664 20.0304C3.47727 20.2898 3.47727 20.7104 3.73664 20.9696L5.15349 22.3865C5.28313 22.5162 5.45315 22.581 5.62309 22.581C5.79302 22.581 5.96304 22.5162 6.09277 22.3865L8.92646 19.5528C9.18584 19.2934 9.18584 18.8729 8.92646 18.6136C8.667 18.3542 8.24655 18.3542 7.98709 18.6136Z" fill="white"/>
<path d="M15.541 4.87044H28.2926C28.6595 4.87044 28.9567 4.57308 28.9567 4.20629C28.9567 3.83951 28.6595 3.54214 28.2926 3.54214H15.541C15.1741 3.54214 14.8768 3.83951 14.8768 4.20629C14.8768 4.57308 15.1741 4.87044 15.541 4.87044Z" fill="white"/>
<path d="M15.541 9.12102H40.3358C40.7027 9.12102 40.9999 8.82366 40.9999 8.45687C40.9999 8.09009 40.7027 7.79272 40.3358 7.79272H15.541C15.1741 7.79272 14.8768 8.09009 14.8768 8.45687C14.8768 8.82366 15.1741 9.12102 15.541 9.12102Z" fill="white"/>
<path d="M15.541 19.0389H28.2926C28.6595 19.0389 28.9567 18.7415 28.9567 18.3747C28.9567 18.0079 28.6595 17.7106 28.2926 17.7106H15.541C15.1741 17.7106 14.8768 18.0079 14.8768 18.3747C14.8768 18.7415 15.1741 19.0389 15.541 19.0389Z" fill="white"/>
<path d="M40.3358 21.9611H15.541C15.1741 21.9611 14.8768 22.2585 14.8768 22.6253C14.8768 22.9921 15.1741 23.2894 15.541 23.2894H40.3358C40.7027 23.2894 40.9999 22.9921 40.9999 22.6253C40.9999 22.2585 40.7027 21.9611 40.3358 21.9611Z" fill="white"/>
<path d="M15.541 33.2074H28.2926C28.6595 33.2074 28.9567 32.91 28.9567 32.5432C28.9567 32.1764 28.6595 31.8791 28.2926 31.8791H15.541C15.1741 31.8791 14.8768 32.1764 14.8768 32.5432C14.8768 32.91 15.1741 33.2074 15.541 33.2074Z" fill="white"/>
<path d="M40.3358 36.1296H15.541C15.1741 36.1296 14.8768 36.4269 14.8768 36.7937C14.8768 37.1605 15.1741 37.4579 15.541 37.4579H40.3358C40.7027 37.4579 40.9999 37.1605 40.9999 36.7937C40.9999 36.4269 40.7027 36.1296 40.3358 36.1296Z" fill="white"/>
</svg>
